<mxfile host="app.diagrams.net" agent="Mozilla/5.0 (X11; Linux x86_64) AppleWebKit/537.36 (KHTML, like Gecko) Chrome/130.0.0.0 Safari/537.36" version="28.0.5">
  <diagram name="Page-1" id="DcKRUoezCHCtLgZjHGTR">
    <mxGraphModel dx="2038" dy="1808" grid="1" gridSize="10" guides="1" tooltips="1" connect="1" arrows="1" fold="1" page="1" pageScale="1" pageWidth="850" pageHeight="1100" math="0" shadow="0">
      <root>
        <mxCell id="0" />
        <mxCell id="1" parent="0" />
        <mxCell id="mO9Jl5fzoPU50IXUbKld-35" value="" style="rounded=0;whiteSpace=wrap;html=1;glass=0;" vertex="1" parent="1">
          <mxGeometry x="650" y="-68" width="168" height="326" as="geometry" />
        </mxCell>
        <mxCell id="mO9Jl5fzoPU50IXUbKld-1" value="" style="rounded=0;whiteSpace=wrap;html=1;glass=0;" vertex="1" parent="1">
          <mxGeometry x="380" y="-68" width="168" height="326" as="geometry" />
        </mxCell>
        <mxCell id="mO9Jl5fzoPU50IXUbKld-2" value="" style="rounded=0;whiteSpace=wrap;html=1;glass=0;fillStyle=solid;" vertex="1" parent="1">
          <mxGeometry x="143" y="-68" width="168" height="326" as="geometry" />
        </mxCell>
        <mxCell id="mO9Jl5fzoPU50IXUbKld-3" value="" style="swimlane;startSize=0;" vertex="1" parent="1">
          <mxGeometry x="-127" y="-113" width="208" height="371" as="geometry" />
        </mxCell>
        <mxCell id="mO9Jl5fzoPU50IXUbKld-4" value="CRM&lt;div&gt;&lt;br&gt;&lt;/div&gt;" style="image;aspect=fixed;html=1;points=[];align=center;fontSize=12;image=img/lib/azure2/general/Folder_Blank.svg;" vertex="1" parent="mO9Jl5fzoPU50IXUbKld-3">
          <mxGeometry x="69.5" y="88.5" width="69" height="56.00000000000001" as="geometry" />
        </mxCell>
        <mxCell id="mO9Jl5fzoPU50IXUbKld-5" value="&lt;div&gt;ERP&lt;/div&gt;&lt;div&gt;&lt;br&gt;&lt;/div&gt;" style="image;aspect=fixed;html=1;points=[];align=center;fontSize=12;image=img/lib/azure2/general/Folder_Blank.svg;" vertex="1" parent="mO9Jl5fzoPU50IXUbKld-3">
          <mxGeometry x="69.5" y="238" width="69" height="56.00000000000001" as="geometry" />
        </mxCell>
        <mxCell id="mO9Jl5fzoPU50IXUbKld-6" style="edgeStyle=none;curved=1;rounded=0;orthogonalLoop=1;jettySize=auto;html=1;entryX=0;entryY=0.5;entryDx=0;entryDy=0;fontSize=12;startSize=8;endSize=8;fillColor=#e3c800;strokeColor=#B09500;strokeWidth=3;" edge="1" parent="mO9Jl5fzoPU50IXUbKld-3">
          <mxGeometry relative="1" as="geometry">
            <mxPoint x="138.5" y="266" as="sourcePoint" />
            <mxPoint x="290.5" y="266" as="targetPoint" />
          </mxGeometry>
        </mxCell>
        <mxCell id="mO9Jl5fzoPU50IXUbKld-7" style="edgeStyle=orthogonalEdgeStyle;rounded=0;orthogonalLoop=1;jettySize=auto;html=1;entryX=0;entryY=0.5;entryDx=0;entryDy=0;fontSize=12;startSize=8;endSize=8;fillColor=#e3c800;strokeColor=#B09500;strokeWidth=3;" edge="1" parent="mO9Jl5fzoPU50IXUbKld-3">
          <mxGeometry relative="1" as="geometry">
            <mxPoint x="138.5" y="266" as="sourcePoint" />
            <mxPoint x="290.5" y="222" as="targetPoint" />
            <Array as="points">
              <mxPoint x="229.5" y="266" />
              <mxPoint x="229.5" y="222" />
            </Array>
          </mxGeometry>
        </mxCell>
        <mxCell id="mO9Jl5fzoPU50IXUbKld-8" style="edgeStyle=orthogonalEdgeStyle;rounded=0;orthogonalLoop=1;jettySize=auto;html=1;entryX=0;entryY=0.5;entryDx=0;entryDy=0;fontSize=12;startSize=8;endSize=8;fillColor=#e3c800;strokeColor=#B09500;strokeWidth=3;" edge="1" parent="mO9Jl5fzoPU50IXUbKld-3">
          <mxGeometry relative="1" as="geometry">
            <mxPoint x="138.5" y="266" as="sourcePoint" />
            <mxPoint x="290.5" y="310" as="targetPoint" />
            <Array as="points">
              <mxPoint x="230.5" y="266" />
              <mxPoint x="230.5" y="310" />
            </Array>
          </mxGeometry>
        </mxCell>
        <mxCell id="mO9Jl5fzoPU50IXUbKld-9" value="Bronze Layer" style="rounded=1;whiteSpace=wrap;html=1;fontSize=20;fillColor=#f0a30a;fontColor=#000000;strokeColor=#BD7000;" vertex="1" parent="1">
          <mxGeometry x="143" y="-113" width="168" height="35" as="geometry" />
        </mxCell>
        <mxCell id="mO9Jl5fzoPU50IXUbKld-10" style="edgeStyle=none;curved=1;rounded=0;orthogonalLoop=1;jettySize=auto;html=1;entryX=0;entryY=0.5;entryDx=0;entryDy=0;fontSize=12;startSize=8;endSize=8;fillColor=#f0a30a;strokeColor=#BD7000;strokeWidth=3;" edge="1" parent="1" source="mO9Jl5fzoPU50IXUbKld-11" target="mO9Jl5fzoPU50IXUbKld-28">
          <mxGeometry relative="1" as="geometry" />
        </mxCell>
        <mxCell id="mO9Jl5fzoPU50IXUbKld-11" value="&lt;font style=&quot;font-size: 15px;&quot;&gt;crm_sales_details&lt;/font&gt;" style="rounded=1;whiteSpace=wrap;html=1;fontSize=20;verticalAlign=middle;labelPosition=center;verticalLabelPosition=middle;align=center;" vertex="1" parent="1">
          <mxGeometry x="164" y="-58" width="126" height="35" as="geometry" />
        </mxCell>
        <mxCell id="mO9Jl5fzoPU50IXUbKld-12" value="&lt;font style=&quot;font-size: 20px;&quot;&gt;Sources&lt;/font&gt;" style="rounded=0;whiteSpace=wrap;html=1;glass=1;strokeColor=none;" vertex="1" parent="1">
          <mxGeometry x="-60" y="-131" width="74" height="35" as="geometry" />
        </mxCell>
        <mxCell id="mO9Jl5fzoPU50IXUbKld-13" style="edgeStyle=none;curved=1;rounded=0;orthogonalLoop=1;jettySize=auto;html=1;entryX=0;entryY=0.5;entryDx=0;entryDy=0;fontSize=12;startSize=8;endSize=8;fillColor=#f0a30a;strokeColor=#BD7000;strokeWidth=3;" edge="1" parent="1" source="mO9Jl5fzoPU50IXUbKld-14" target="mO9Jl5fzoPU50IXUbKld-29">
          <mxGeometry relative="1" as="geometry" />
        </mxCell>
        <mxCell id="mO9Jl5fzoPU50IXUbKld-14" value="&lt;font style=&quot;font-size: 15px;&quot;&gt;crm_prd_info&lt;/font&gt;" style="rounded=1;whiteSpace=wrap;html=1;fontSize=20;verticalAlign=middle;labelPosition=center;verticalLabelPosition=middle;align=center;" vertex="1" parent="1">
          <mxGeometry x="164" y="30" width="126" height="35" as="geometry" />
        </mxCell>
        <mxCell id="mO9Jl5fzoPU50IXUbKld-15" style="edgeStyle=none;curved=1;rounded=0;orthogonalLoop=1;jettySize=auto;html=1;fontSize=12;startSize=8;endSize=8;fillColor=#f0a30a;strokeColor=#BD7000;strokeWidth=3;" edge="1" parent="1" source="mO9Jl5fzoPU50IXUbKld-16" target="mO9Jl5fzoPU50IXUbKld-30">
          <mxGeometry relative="1" as="geometry" />
        </mxCell>
        <mxCell id="mO9Jl5fzoPU50IXUbKld-16" value="&lt;font style=&quot;font-size: 15px;&quot;&gt;crm_cust_info&lt;/font&gt;" style="rounded=1;whiteSpace=wrap;html=1;fontSize=20;verticalAlign=middle;labelPosition=center;verticalLabelPosition=middle;align=center;" vertex="1" parent="1">
          <mxGeometry x="164" y="-14" width="126" height="35" as="geometry" />
        </mxCell>
        <mxCell id="mO9Jl5fzoPU50IXUbKld-17" style="edgeStyle=none;curved=1;rounded=0;orthogonalLoop=1;jettySize=auto;html=1;exitX=0.75;exitY=0;exitDx=0;exitDy=0;fontSize=12;startSize=8;endSize=8;" edge="1" parent="1" source="mO9Jl5fzoPU50IXUbKld-14" target="mO9Jl5fzoPU50IXUbKld-14">
          <mxGeometry relative="1" as="geometry" />
        </mxCell>
        <mxCell id="mO9Jl5fzoPU50IXUbKld-18" style="edgeStyle=none;curved=1;rounded=0;orthogonalLoop=1;jettySize=auto;html=1;entryX=0;entryY=0.5;entryDx=0;entryDy=0;fontSize=12;startSize=8;endSize=8;fillColor=#f0a30a;strokeColor=#BD7000;strokeWidth=3;" edge="1" parent="1" source="mO9Jl5fzoPU50IXUbKld-19" target="mO9Jl5fzoPU50IXUbKld-32">
          <mxGeometry relative="1" as="geometry" />
        </mxCell>
        <mxCell id="mO9Jl5fzoPU50IXUbKld-19" value="&lt;span style=&quot;font-size: 15px;&quot;&gt;erp_cust_az12&lt;/span&gt;" style="rounded=1;whiteSpace=wrap;html=1;fontSize=20;verticalAlign=middle;labelPosition=center;verticalLabelPosition=middle;align=center;" vertex="1" parent="1">
          <mxGeometry x="164" y="94" width="126" height="35" as="geometry" />
        </mxCell>
        <mxCell id="mO9Jl5fzoPU50IXUbKld-20" style="edgeStyle=none;curved=1;rounded=0;orthogonalLoop=1;jettySize=auto;html=1;entryX=0;entryY=0.5;entryDx=0;entryDy=0;fontSize=12;startSize=8;endSize=8;fillColor=#f0a30a;strokeColor=#BD7000;strokeWidth=3;" edge="1" parent="1" source="mO9Jl5fzoPU50IXUbKld-21" target="mO9Jl5fzoPU50IXUbKld-33">
          <mxGeometry relative="1" as="geometry" />
        </mxCell>
        <mxCell id="mO9Jl5fzoPU50IXUbKld-21" value="&lt;font style=&quot;font-size: 15px;&quot;&gt;erp_px_cat_g1v2&lt;/font&gt;" style="rounded=1;whiteSpace=wrap;html=1;fontSize=20;verticalAlign=middle;labelPosition=center;verticalLabelPosition=middle;align=center;" vertex="1" parent="1">
          <mxGeometry x="164" y="182" width="126" height="35" as="geometry" />
        </mxCell>
        <mxCell id="mO9Jl5fzoPU50IXUbKld-22" style="edgeStyle=none;curved=1;rounded=0;orthogonalLoop=1;jettySize=auto;html=1;entryX=0;entryY=0.5;entryDx=0;entryDy=0;fontSize=12;startSize=8;endSize=8;fillColor=#f0a30a;strokeColor=#BD7000;strokeWidth=3;" edge="1" parent="1" source="mO9Jl5fzoPU50IXUbKld-23" target="mO9Jl5fzoPU50IXUbKld-34">
          <mxGeometry relative="1" as="geometry" />
        </mxCell>
        <mxCell id="mO9Jl5fzoPU50IXUbKld-23" value="&lt;font style=&quot;font-size: 15px;&quot;&gt;erp_loc_a101&lt;/font&gt;" style="rounded=1;whiteSpace=wrap;html=1;fontSize=20;verticalAlign=middle;labelPosition=center;verticalLabelPosition=middle;align=center;" vertex="1" parent="1">
          <mxGeometry x="164" y="138" width="126" height="35" as="geometry" />
        </mxCell>
        <mxCell id="mO9Jl5fzoPU50IXUbKld-24" style="edgeStyle=none;curved=1;rounded=0;orthogonalLoop=1;jettySize=auto;html=1;entryX=0;entryY=0.5;entryDx=0;entryDy=0;fontSize=12;startSize=8;endSize=8;fillColor=#e3c800;strokeColor=#B09500;strokeWidth=3;" edge="1" parent="1" source="mO9Jl5fzoPU50IXUbKld-4" target="mO9Jl5fzoPU50IXUbKld-16">
          <mxGeometry relative="1" as="geometry" />
        </mxCell>
        <mxCell id="mO9Jl5fzoPU50IXUbKld-25" style="edgeStyle=orthogonalEdgeStyle;rounded=0;orthogonalLoop=1;jettySize=auto;html=1;entryX=0;entryY=0.5;entryDx=0;entryDy=0;fontSize=12;startSize=8;endSize=8;fillColor=#e3c800;strokeColor=#B09500;strokeWidth=3;" edge="1" parent="1" source="mO9Jl5fzoPU50IXUbKld-4" target="mO9Jl5fzoPU50IXUbKld-11">
          <mxGeometry relative="1" as="geometry">
            <Array as="points">
              <mxPoint x="103" y="4" />
              <mxPoint x="103" y="-40" />
            </Array>
          </mxGeometry>
        </mxCell>
        <mxCell id="mO9Jl5fzoPU50IXUbKld-26" style="edgeStyle=orthogonalEdgeStyle;rounded=0;orthogonalLoop=1;jettySize=auto;html=1;entryX=0;entryY=0.5;entryDx=0;entryDy=0;fontSize=12;startSize=8;endSize=8;fillColor=#e3c800;strokeColor=#B09500;strokeWidth=3;" edge="1" parent="1" source="mO9Jl5fzoPU50IXUbKld-4" target="mO9Jl5fzoPU50IXUbKld-14">
          <mxGeometry relative="1" as="geometry">
            <Array as="points">
              <mxPoint x="104" y="4" />
              <mxPoint x="104" y="48" />
            </Array>
          </mxGeometry>
        </mxCell>
        <mxCell id="mO9Jl5fzoPU50IXUbKld-27" value="silver Layer" style="rounded=1;whiteSpace=wrap;html=1;fontSize=20;fillColor=#647687;fontColor=#ffffff;strokeColor=#314354;" vertex="1" parent="1">
          <mxGeometry x="380" y="-113" width="168" height="35" as="geometry" />
        </mxCell>
        <mxCell id="mO9Jl5fzoPU50IXUbKld-45" style="edgeStyle=orthogonalEdgeStyle;rounded=0;orthogonalLoop=1;jettySize=auto;html=1;exitX=1;exitY=0.5;exitDx=0;exitDy=0;entryX=0;entryY=0.5;entryDx=0;entryDy=0;fontSize=12;startSize=8;endSize=8;strokeWidth=3;fillColor=#b0e3e6;strokeColor=#0e8088;" edge="1" parent="1" source="mO9Jl5fzoPU50IXUbKld-28" target="mO9Jl5fzoPU50IXUbKld-37">
          <mxGeometry relative="1" as="geometry" />
        </mxCell>
        <mxCell id="mO9Jl5fzoPU50IXUbKld-28" value="&lt;font style=&quot;font-size: 15px;&quot;&gt;crm_sales_details&lt;/font&gt;" style="rounded=1;whiteSpace=wrap;html=1;fontSize=20;verticalAlign=middle;labelPosition=center;verticalLabelPosition=middle;align=center;" vertex="1" parent="1">
          <mxGeometry x="401" y="-58" width="126" height="35" as="geometry" />
        </mxCell>
        <mxCell id="mO9Jl5fzoPU50IXUbKld-48" style="edgeStyle=orthogonalEdgeStyle;rounded=0;orthogonalLoop=1;jettySize=auto;html=1;exitX=1;exitY=0.5;exitDx=0;exitDy=0;entryX=0;entryY=0.5;entryDx=0;entryDy=0;fontSize=12;startSize=8;endSize=8;fillColor=#6d8764;strokeColor=#3A5431;strokeWidth=3;" edge="1" parent="1" source="mO9Jl5fzoPU50IXUbKld-29" target="mO9Jl5fzoPU50IXUbKld-38">
          <mxGeometry relative="1" as="geometry">
            <Array as="points">
              <mxPoint x="640" y="48" />
              <mxPoint x="640" y="108" />
            </Array>
          </mxGeometry>
        </mxCell>
        <mxCell id="mO9Jl5fzoPU50IXUbKld-29" value="&lt;font style=&quot;font-size: 15px;&quot;&gt;crm_prd_info&lt;/font&gt;" style="rounded=1;whiteSpace=wrap;html=1;fontSize=20;verticalAlign=middle;labelPosition=center;verticalLabelPosition=middle;align=center;" vertex="1" parent="1">
          <mxGeometry x="401" y="30" width="126" height="35" as="geometry" />
        </mxCell>
        <mxCell id="mO9Jl5fzoPU50IXUbKld-53" style="edgeStyle=orthogonalEdgeStyle;rounded=0;orthogonalLoop=1;jettySize=auto;html=1;exitX=1;exitY=0.5;exitDx=0;exitDy=0;entryX=0;entryY=0.5;entryDx=0;entryDy=0;fontSize=12;startSize=8;endSize=8;fillColor=#e51400;strokeColor=#B20000;strokeWidth=2;" edge="1" parent="1" source="mO9Jl5fzoPU50IXUbKld-30" target="mO9Jl5fzoPU50IXUbKld-39">
          <mxGeometry relative="1" as="geometry">
            <Array as="points">
              <mxPoint x="600" y="4" />
              <mxPoint x="600" y="18" />
            </Array>
          </mxGeometry>
        </mxCell>
        <mxCell id="mO9Jl5fzoPU50IXUbKld-30" value="&lt;font style=&quot;font-size: 15px;&quot;&gt;crm_cust_info&lt;/font&gt;" style="rounded=1;whiteSpace=wrap;html=1;fontSize=20;verticalAlign=middle;labelPosition=center;verticalLabelPosition=middle;align=center;" vertex="1" parent="1">
          <mxGeometry x="401" y="-14" width="126" height="35" as="geometry" />
        </mxCell>
        <mxCell id="mO9Jl5fzoPU50IXUbKld-31" style="edgeStyle=none;curved=1;rounded=0;orthogonalLoop=1;jettySize=auto;html=1;exitX=0.75;exitY=0;exitDx=0;exitDy=0;fontSize=12;startSize=8;endSize=8;" edge="1" parent="1" source="mO9Jl5fzoPU50IXUbKld-29" target="mO9Jl5fzoPU50IXUbKld-29">
          <mxGeometry relative="1" as="geometry" />
        </mxCell>
        <mxCell id="mO9Jl5fzoPU50IXUbKld-54" style="edgeStyle=orthogonalEdgeStyle;rounded=0;orthogonalLoop=1;jettySize=auto;html=1;exitX=1;exitY=0.5;exitDx=0;exitDy=0;fontSize=12;startSize=8;endSize=8;fillColor=#e51400;strokeColor=#B20000;strokeWidth=2;" edge="1" parent="1" source="mO9Jl5fzoPU50IXUbKld-32">
          <mxGeometry relative="1" as="geometry">
            <mxPoint x="680" y="20" as="targetPoint" />
            <Array as="points">
              <mxPoint x="600" y="112" />
              <mxPoint x="600" y="20" />
            </Array>
          </mxGeometry>
        </mxCell>
        <mxCell id="mO9Jl5fzoPU50IXUbKld-32" value="&lt;span style=&quot;font-size: 15px;&quot;&gt;erp_cust_az12&lt;/span&gt;" style="rounded=1;whiteSpace=wrap;html=1;fontSize=20;verticalAlign=middle;labelPosition=center;verticalLabelPosition=middle;align=center;" vertex="1" parent="1">
          <mxGeometry x="401" y="94" width="126" height="35" as="geometry" />
        </mxCell>
        <mxCell id="mO9Jl5fzoPU50IXUbKld-49" style="edgeStyle=orthogonalEdgeStyle;rounded=0;orthogonalLoop=1;jettySize=auto;html=1;exitX=1;exitY=0.5;exitDx=0;exitDy=0;fontSize=12;startSize=8;endSize=8;fillColor=#6d8764;strokeColor=#3A5431;strokeWidth=3;" edge="1" parent="1" source="mO9Jl5fzoPU50IXUbKld-33">
          <mxGeometry relative="1" as="geometry">
            <mxPoint x="680" y="110" as="targetPoint" />
            <Array as="points">
              <mxPoint x="640" y="200" />
              <mxPoint x="640" y="110" />
            </Array>
          </mxGeometry>
        </mxCell>
        <mxCell id="mO9Jl5fzoPU50IXUbKld-33" value="&lt;font style=&quot;font-size: 15px;&quot;&gt;erp_px_cat_g1v2&lt;/font&gt;" style="rounded=1;whiteSpace=wrap;html=1;fontSize=20;verticalAlign=middle;labelPosition=center;verticalLabelPosition=middle;align=center;" vertex="1" parent="1">
          <mxGeometry x="401" y="182" width="126" height="35" as="geometry" />
        </mxCell>
        <mxCell id="mO9Jl5fzoPU50IXUbKld-55" style="edgeStyle=orthogonalEdgeStyle;rounded=0;orthogonalLoop=1;jettySize=auto;html=1;exitX=1;exitY=0.5;exitDx=0;exitDy=0;fontSize=12;startSize=8;endSize=8;fillColor=#e51400;strokeColor=#B20000;strokeWidth=2;" edge="1" parent="1" source="mO9Jl5fzoPU50IXUbKld-34">
          <mxGeometry relative="1" as="geometry">
            <mxPoint x="680" y="20" as="targetPoint" />
            <Array as="points">
              <mxPoint x="600" y="156" />
              <mxPoint x="600" y="20" />
            </Array>
          </mxGeometry>
        </mxCell>
        <mxCell id="mO9Jl5fzoPU50IXUbKld-34" value="&lt;font style=&quot;font-size: 15px;&quot;&gt;erp_loc_a101&lt;/font&gt;" style="rounded=1;whiteSpace=wrap;html=1;fontSize=20;verticalAlign=middle;labelPosition=center;verticalLabelPosition=middle;align=center;" vertex="1" parent="1">
          <mxGeometry x="401" y="138" width="126" height="35" as="geometry" />
        </mxCell>
        <mxCell id="mO9Jl5fzoPU50IXUbKld-36" value="Golden Layer" style="rounded=1;whiteSpace=wrap;html=1;fontSize=20;fillColor=#fa6800;strokeColor=#C73500;fontColor=#000000;" vertex="1" parent="1">
          <mxGeometry x="650" y="-113" width="168" height="35" as="geometry" />
        </mxCell>
        <mxCell id="mO9Jl5fzoPU50IXUbKld-37" value="fact_sales" style="rounded=1;whiteSpace=wrap;html=1;fontSize=15;verticalAlign=middle;labelPosition=center;verticalLabelPosition=middle;align=center;" vertex="1" parent="1">
          <mxGeometry x="680" y="-58" width="126" height="35" as="geometry" />
        </mxCell>
        <mxCell id="mO9Jl5fzoPU50IXUbKld-38" value="&lt;font style=&quot;font-size: 15px;&quot;&gt;dim_products&lt;/font&gt;" style="rounded=1;whiteSpace=wrap;html=1;fontSize=20;verticalAlign=middle;labelPosition=center;verticalLabelPosition=middle;align=center;" vertex="1" parent="1">
          <mxGeometry x="680" y="90" width="126" height="35" as="geometry" />
        </mxCell>
        <mxCell id="mO9Jl5fzoPU50IXUbKld-39" value="&lt;font style=&quot;font-size: 15px;&quot;&gt;dim_customers&lt;/font&gt;" style="rounded=1;whiteSpace=wrap;html=1;fontSize=20;verticalAlign=middle;labelPosition=center;verticalLabelPosition=middle;align=center;" vertex="1" parent="1">
          <mxGeometry x="680" width="126" height="35" as="geometry" />
        </mxCell>
        <mxCell id="mO9Jl5fzoPU50IXUbKld-40" style="edgeStyle=none;curved=1;rounded=0;orthogonalLoop=1;jettySize=auto;html=1;exitX=0.75;exitY=0;exitDx=0;exitDy=0;fontSize=12;startSize=8;endSize=8;" edge="1" parent="1" source="mO9Jl5fzoPU50IXUbKld-38" target="mO9Jl5fzoPU50IXUbKld-38">
          <mxGeometry relative="1" as="geometry" />
        </mxCell>
      </root>
    </mxGraphModel>
  </diagram>
</mxfile>
